# xmcd
#
# Track frame offsets:
#	150
#	4352
#	19804
#	39831
#	53858
#	73585
#	90912
#	108464
#	127591
#	149568
#	172070
#
# Disc length: 2548 seconds
#
# Revision: 1
# Processed by: cddbd v1.5.1PL0 Copyright (c) Steve Scherf et al.
# Submitted via: audiograbber 1.83.01
#
DISCID=8c09f20b
DTITLE=Lady Winwoods Maggot - Brother Lambert Has Left The Building 1
DYEAR=2004
DGENRE=
TTITLE0=Intro
TTITLE1=Chupa Cabra
TTITLE2=Poor Wayfaring Stranger
TTITLE3=I Know What's Mine
TTITLE4=Chase The Cat
TTITLE5=Private Idaho
TTITLE6=Fat Bottomed Girls
TTITLE7=The Battle Of New Orleans
TTITLE8=Star Of The County Down
TTITLE9=Moose
TTITLE10=Cripple Creek
EXTD=
EXTT0=
EXTT1=
EXTT2=
EXTT3=
EXTT4=
EXTT5=
EXTT6=
EXTT7=
EXTT8=
EXTT9=
EXTT10=
PLAYORDER=
